<svg width="24" height="24" viewBox="0 0 24 24" fill="none" xmlns="http://www.w3.org/2000/svg">
<path fill-rule="evenodd" clip-rule="evenodd" d="M7.43499 1.25C6.86499 1.25 6.38199 1.25 5.98199 1.291C5.55599 1.335 5.16199 1.431 4.79099 1.661C4.41899 1.891 4.15699 2.2 3.92699 2.561C3.71199 2.901 3.49499 3.333 3.23999 3.843L3.22399 3.876C3.21412 3.8956 3.20511 3.91561 3.19699 3.936L1.79399 7.482C1.62699 7.905 1.44199 8.432 1.38699 8.97C1.33199 9.522 1.40799 10.153 1.83999 10.7C2.09696 11.0272 2.42493 11.2918 2.79912 11.4737C3.1733 11.6556 3.58394 11.7501 3.99999 11.75C4.78799 11.75 5.49899 11.419 5.99999 10.887C6.25672 11.1598 6.56664 11.3772 6.91062 11.5256C7.2546 11.674 7.62535 11.7504 7.99999 11.75C8.78799 11.75 9.49899 11.419 9.99999 10.887C10.2567 11.1598 10.5666 11.3772 10.9106 11.5256C11.2546 11.674 11.6254 11.7504 12 11.75C12.788 11.75 13.499 11.419 14 10.887C14.2567 11.1598 14.5666 11.3772 14.9106 11.5256C15.2546 11.674 15.6254 11.7504 16 11.75C16.788 11.75 17.499 11.419 18 10.887C18.2567 11.1598 18.5666 11.3772 18.9106 11.5256C19.2546 11.674 19.6254 11.7504 20 11.75C20.877 11.75 21.658 11.339 22.16 10.702C22.592 10.154 22.668 9.522 22.613 8.972C22.559 8.432 22.373 7.906 22.207 7.483L20.803 3.935C20.7949 3.9146 20.7859 3.89458 20.776 3.875L20.76 3.843C20.505 3.333 20.289 2.9 20.073 2.561C19.843 2.2 19.582 1.891 19.21 1.661C18.838 1.431 18.445 1.335 18.019 1.291C17.619 1.25 17.135 1.25 16.565 1.25H7.43499ZM7.99999 10.25C7.30999 10.25 6.74999 9.69 6.74999 9C6.74999 8.80109 6.67098 8.61032 6.53032 8.46967C6.38967 8.32902 6.19891 8.25 5.99999 8.25C5.80108 8.25 5.61032 8.32902 5.46966 8.46967C5.32901 8.61032 5.24999 8.80109 5.24999 9C5.24991 9.2598 5.16888 9.51311 5.01816 9.72472C4.86745 9.93633 4.65455 10.0957 4.40906 10.1808C4.16357 10.2658 3.89769 10.2722 3.64839 10.1991C3.39908 10.126 3.17874 9.9771 3.01799 9.773C2.90399 9.629 2.84799 9.431 2.87999 9.121C2.91199 8.799 3.03099 8.433 3.18799 8.035L4.57999 4.517C4.84799 3.982 5.02699 3.627 5.19299 3.367C5.35299 3.115 5.46799 3.006 5.57899 2.937C5.69099 2.867 5.83899 2.814 6.13599 2.783C6.44999 2.751 6.85599 2.75 7.47199 2.75H16.528C17.145 2.75 17.551 2.75 17.864 2.783C18.161 2.814 18.31 2.868 18.421 2.937C18.533 3.006 18.647 3.115 18.807 3.367C18.974 3.627 19.153 3.982 19.42 4.517L20.812 8.035C20.969 8.433 21.088 8.799 21.12 9.121C21.152 9.431 21.096 9.629 20.983 9.773C20.8224 9.9775 20.602 10.1268 20.3525 10.2001C20.103 10.2735 19.8368 10.2671 19.5911 10.1821C19.3454 10.097 19.1323 9.93743 18.9815 9.72555C18.8307 9.51367 18.7498 9.26004 18.75 9C18.75 8.80109 18.671 8.61032 18.5303 8.46967C18.3897 8.32902 18.1989 8.25 18 8.25C17.8011 8.25 17.6103 8.32902 17.4697 8.46967C17.329 8.61032 17.25 8.80109 17.25 9C17.25 9.33152 17.1183 9.64946 16.8839 9.88388C16.6495 10.1183 16.3315 10.25 16 10.25C15.6685 10.25 15.3505 10.1183 15.1161 9.88388C14.8817 9.64946 14.75 9.33152 14.75 9C14.75 8.80109 14.671 8.61032 14.5303 8.46967C14.3897 8.32902 14.1989 8.25 14 8.25C13.8011 8.25 13.6103 8.32902 13.4697 8.46967C13.329 8.61032 13.25 8.80109 13.25 9C13.25 9.33152 13.1183 9.64946 12.8839 9.88388C12.6495 10.1183 12.3315 10.25 12 10.25C11.6685 10.25 11.3505 10.1183 11.1161 9.88388C10.8817 9.64946 10.75 9.33152 10.75 9C10.75 8.80109 10.671 8.61032 10.5303 8.46967C10.3897 8.32902 10.1989 8.25 9.99999 8.25C9.80108 8.25 9.61032 8.32902 9.46966 8.46967C9.32901 8.61032 9.24999 8.80109 9.24999 9C9.24999 9.69 8.68999 10.25 7.99999 10.25Z" fill="#2E2E2E"/>
<path d="M19.75 15C19.75 14.8011 19.671 14.6103 19.5303 14.4697C19.3897 14.329 19.1989 14.25 19 14.25C18.8011 14.25 18.6103 14.329 18.4697 14.4697C18.329 14.6103 18.25 14.8011 18.25 15V21.25H5.75V15C5.75 14.8011 5.67098 14.6103 5.53033 14.4697C5.38968 14.329 5.19891 14.25 5 14.25C4.80109 14.25 4.61032 14.329 4.46967 14.4697C4.32902 14.6103 4.25 14.8011 4.25 15V21.25H3C2.80109 21.25 2.61032 21.329 2.46967 21.4697C2.32902 21.6103 2.25 21.8011 2.25 22C2.25 22.1989 2.32902 22.3897 2.46967 22.5303C2.61032 22.671 2.80109 22.75 3 22.75H21C21.1989 22.75 21.3897 22.671 21.5303 22.5303C21.671 22.3897 21.75 22.1989 21.75 22C21.75 21.8011 21.671 21.6103 21.5303 21.4697C21.3897 21.329 21.1989 21.25 21 21.25H19.75V15Z" fill="#2E2E2E"/>
</svg>
